<svg width="16" height="20" viewBox="0 0 16 20" fill="none" xmlns="http://www.w3.org/2000/svg">
<g clip-path="url(#clip0_23_43)">
<path fill-rule="evenodd" clip-rule="evenodd" d="M6.5 15C7.22227 15 7.93747 14.8222 8.60476 14.4767C9.27205 14.1312 9.87837 13.6248 10.3891 12.9864C10.8998 12.348 11.3049 11.5901 11.5813 10.7559C11.8577 9.92184 12 9.02784 12 8.125C12 7.22216 11.8577 6.32817 11.5813 5.49405C11.3049 4.65994 10.8998 3.90204 10.3891 3.26364C9.87837 2.62524 9.27205 2.11883 8.60476 1.77333C7.93747 1.42783 7.22227 1.25 6.5 1.25C5.04131 1.25 3.64236 1.97433 2.61091 3.26364C1.57946 4.55295 1 6.30164 1 8.125C1 9.94836 1.57946 11.697 2.61091 12.9864C3.64236 14.2757 5.04131 15 6.5 15ZM13 8.125C13 10.2799 12.3152 12.3465 11.0962 13.8702C9.87721 15.394 8.22391 16.25 6.5 16.25C4.77609 16.25 3.12279 15.394 1.90381 13.8702C0.684819 12.3465 0 10.2799 0 8.125C0 5.97012 0.684819 3.90349 1.90381 2.37976C3.12279 0.856024 4.77609 0 6.5 0C8.22391 0 9.87721 0.856024 11.0962 2.37976C12.3152 3.90349 13 5.97012 13 8.125Z" fill="white"/>
<path d="M10.3438 14.6772C10.3738 14.7272 10.4058 14.7747 10.4418 14.821L14.2918 19.6335C14.4793 19.868 14.7336 19.9999 14.9989 20C15.2642 20.0001 15.5186 19.8685 15.7063 19.6341C15.8939 19.3997 15.9994 19.0817 15.9995 18.7502C15.9995 18.4186 15.8943 18.1005 15.7068 17.866L11.8568 13.0535C11.821 13.0082 11.7826 12.9664 11.7417 12.9285C11.3495 13.5971 10.8781 14.1872 10.3438 14.6785V14.6772Z" fill="white"/>
</g>
<defs>
<clipPath id="clip0_23_43">
<rect width="16" height="20" fill="white"/>
</clipPath>
</defs>
</svg>
